<svg width="20" height="20" viewBox="0 0 20 20" fill="none" xmlns="http://www.w3.org/2000/svg">
<path d="M9.75994 4.96001C9.68312 5.00001 9.62551 5.04334 9.58711 5.09001C9.5487 5.13667 9.5103 5.20001 9.47189 5.28001C9.42068 5.42667 9.42068 5.57334 9.47189 5.72001C9.5103 5.81334 10.0992 6.44667 11.2386 7.62001L12.9284 9.40001H5.57367L5.42004 9.48001C5.29202 9.54667 5.20241 9.65001 5.1512 9.79001C5.09999 9.93001 5.09999 10.07 5.1512 10.21C5.20241 10.35 5.29202 10.4533 5.42004 10.52L5.57367 10.6H12.9284L11.2386 12.38C10.0992 13.5533 9.5103 14.1867 9.47189 14.28C9.42068 14.4267 9.42068 14.5733 9.47189 14.72C9.5103 14.8 9.5487 14.8633 9.58711 14.91C9.62551 14.9567 9.68312 15 9.75994 15.04C9.92636 15.12 10.0864 15.12 10.24 15.04C10.3168 15 11.101 14.2033 12.5924 12.65C14.0838 11.0967 14.8424 10.29 14.868 10.23C14.8936 10.17 14.9064 10.0933 14.9064 10C14.9064 9.90667 14.8936 9.83001 14.868 9.77001C14.8424 9.71001 14.0838 8.90334 12.5924 7.35001C11.101 5.79667 10.3168 5.00001 10.24 4.96001C10.0864 4.88001 9.92636 4.88001 9.75994 4.96001Z" fill="url(#paint0_linear_3621_7881)"/>
<defs>
<linearGradient id="paint0_linear_3621_7881" x1="6.49951" y1="13" x2="15.7047" y2="9.21501" gradientUnits="userSpaceOnUse">
<stop stop-color="#6169E5" stop-opacity="0.9"/>
<stop offset="1" stop-color="#6169E5" stop-opacity="0.4"/>
</linearGradient>
</defs>
</svg>
