<svg width="33" height="32" viewBox="0 0 33 32" fill="none" xmlns="http://www.w3.org/2000/svg">
<path d="M13.25 27.6667L15.214 28.7578C15.5921 28.9679 15.7812 29.0728 15.9815 29.114C16.1587 29.1506 16.3413 29.1506 16.5187 29.114C16.7188 29.0728 16.9079 28.9679 17.286 28.7578L19.25 27.6667M7.25 24.3334L5.34729 23.2763C4.94795 23.0545 4.74824 22.9435 4.60284 22.7857C4.47421 22.6462 4.37687 22.4807 4.31731 22.3005C4.25 22.0967 4.25 21.8683 4.25 21.4114V19.3334M4.25 12.6667V10.5886C4.25 10.1318 4.25 9.90334 4.31731 9.69961C4.37687 9.51937 4.47421 9.35393 4.60284 9.21435C4.74824 9.05656 4.94793 8.94563 5.34729 8.72376L7.25 7.66671M13.25 4.33336L15.214 3.24228C15.5921 3.0322 15.7812 2.92716 15.9815 2.88597C16.1587 2.84953 16.3413 2.84953 16.5187 2.88597C16.7188 2.92716 16.9079 3.0322 17.286 3.24228L19.25 4.33336M25.25 7.66669L27.1527 8.72376C27.5521 8.94563 27.7517 9.05656 27.8972 9.21435C28.0257 9.35393 28.1232 9.51937 28.1827 9.69961C28.25 9.90334 28.25 10.1318 28.25 10.5886V12.6667M28.25 19.3334V21.4114C28.25 21.8683 28.25 22.0967 28.1827 22.3005C28.1232 22.4807 28.0257 22.6462 27.8972 22.7857C27.7517 22.9435 27.5521 23.0545 27.1527 23.2763L25.25 24.3334M13.25 14.3334L16.25 16.0001M16.25 16.0001L19.25 14.3334M16.25 16.0001V19.3334M4.25 9.33336L7.25 11M25.25 11L28.25 9.33336M16.25 26V29.3334" stroke="white" stroke-width="2.5" stroke-linecap="round" stroke-linejoin="round"/>
</svg>
