<svg width="44" height="44" viewBox="0 0 44 44" fill="none" xmlns="http://www.w3.org/2000/svg">
<path d="M34.8881 12.1282C32.6324 10.8983 30.2252 9.96943 27.7281 9.36518C27.339 9.95917 26.9817 10.5733 26.6575 11.205C23.994 10.6112 21.2567 10.4197 18.5365 10.6371C18.3032 9.96651 18.0348 9.30863 17.7324 8.66621C15.1736 8.92055 12.6588 9.50708 10.2515 10.411C5.14139 16.9387 3.4188 23.5323 3.58591 30.1627C6.15782 32.3561 9.08678 34.0923 12.2455 35.2957C13.0405 34.3692 13.756 33.3774 14.3844 32.3307C13.3624 31.8654 12.3833 31.311 11.4585 30.674C11.7253 30.5076 11.9868 30.3353 12.2396 30.1679C14.9541 31.6842 17.9697 32.5827 21.0713 32.7996C24.1729 33.0165 27.2842 32.5464 30.1833 31.4227C30.4121 31.6377 30.6472 31.8448 30.8863 32.0325C29.88 32.5354 28.8314 32.949 27.7526 33.2683C28.2286 34.3917 28.7992 35.4726 29.4582 36.4993C32.7562 35.7513 35.9005 34.4406 38.7533 32.6247C40.0239 25.0379 38.4922 18.2785 34.8881 12.1282ZM15.561 26.9296C13.8118 26.8073 12.4777 25.1189 12.6143 23.1661C12.7508 21.2133 14.2577 19.7096 16.0515 19.835C17.8453 19.9604 19.1673 21.662 19 23.6127C18.8328 25.5633 17.3437 27.0543 15.561 26.9296ZM27.3449 27.7537C25.5929 27.6311 24.2644 25.9431 24.401 23.9903C24.5375 22.0375 26.0444 20.5338 27.841 20.6594C29.6376 20.785 30.9484 22.4858 30.7811 24.4365C30.6139 26.3871 29.1276 27.8783 27.3449 27.7537Z" fill="#7E8695"/>
</svg>
