<svg width="22" height="22" viewBox="0 0 22 22" fill="none" xmlns="http://www.w3.org/2000/svg">
<path d="M4.88867 4.8889H21.3887" stroke="black"/>
<circle cx="1.22222" cy="4.88889" r="0.722222" fill="#D9D9D9" stroke="black"/>
<path d="M4.88867 11H21.3887" stroke="black"/>
<path d="M1.94444 11C1.94444 11.3989 1.62109 11.7222 1.22222 11.7222C0.82335 11.7222 0.5 11.3989 0.5 11C0.5 10.6011 0.82335 10.2778 1.22222 10.2778C1.62109 10.2778 1.94444 10.6011 1.94444 11Z" fill="#D9D9D9" stroke="black"/>
<path d="M4.88867 17.1111H21.3887" stroke="black"/>
<path d="M1.94444 17.1111C1.94444 17.51 1.62109 17.8333 1.22222 17.8333C0.82335 17.8333 0.5 17.51 0.5 17.1111C0.5 16.7122 0.82335 16.3889 1.22222 16.3889C1.62109 16.3889 1.94444 16.7122 1.94444 17.1111Z" fill="#D9D9D9" stroke="black"/>
</svg>
