<svg width="33" height="32" viewBox="0 0 33 32" fill="none" xmlns="http://www.w3.org/2000/svg">
<path d="M17.833 9.99999L13.833 14L19.1663 16.6667L15.1663 20.6667M27.1663 16C27.1663 22.5446 20.0277 27.3045 17.4303 28.8198C17.1351 28.992 16.9875 29.0781 16.7792 29.1228C16.6176 29.1575 16.3818 29.1575 16.2201 29.1228C16.0118 29.0781 15.8642 28.992 15.569 28.8198C12.9716 27.3045 5.83301 22.5446 5.83301 16L5.83301 9.62346C5.83301 8.55744 5.83301 8.02443 6.00736 7.56626C6.16137 7.16151 6.41165 6.80036 6.73655 6.51403C7.10434 6.18991 7.60341 6.00276 8.60155 5.62845L15.7506 2.94756C16.0278 2.84361 16.1664 2.79163 16.309 2.77103C16.4355 2.75276 16.5639 2.75276 16.6904 2.77103C16.8329 2.79163 16.9715 2.84361 17.2487 2.94756L24.3978 5.62845C25.3959 6.00276 25.895 6.18991 26.2628 6.51403C26.5877 6.80036 26.838 7.16151 26.992 7.56626C27.1663 8.02443 27.1663 8.55744 27.1663 9.62346L27.1663 16Z" stroke="white" stroke-width="2.66667" stroke-linecap="round" stroke-linejoin="round"/>
</svg>
