<svg width="48" height="48" viewBox="0 0 48 48" fill="none" xmlns="http://www.w3.org/2000/svg">
<path d="M15.2598 27.7322L22.5718 23.2742V13.9722" stroke="#2DB04C" stroke-width="3" stroke-linecap="round" stroke-linejoin="round"/>
<path d="M44 34V28C44 26.3414 40.64 25 36.5 25C32.36 25 29.0021 26.3436 29 28V40C29.0021 41.6564 32.3579 43 36.5 43C40.6421 43 43.9979 41.6564 44 40V28" stroke="#2DB04C" stroke-width="3" stroke-linecap="round" stroke-linejoin="round"/>
<path d="M29.002 28C29.002 29.6564 32.3598 31 36.502 31C40.6441 31 43.9998 29.6564 43.9998 28" stroke="#2DB04C" stroke-width="3" stroke-linecap="round" stroke-linejoin="round"/>
<path d="M29 34C29 35.6564 32.3579 37 36.5 37C40.6421 37 44 35.6564 44 34" stroke="#2DB04C" stroke-width="3" stroke-linecap="round" stroke-linejoin="round"/>
<path d="M39.5387 18.0002C37.4426 8.81834 28.6213 2.80595 19.3088 4.21192C9.99627 5.61789 3.34313 13.9666 4.05112 23.358C4.7591 32.7493 12.5887 40.0062 22.0067 40.0002" stroke="#2DB04C" stroke-width="3" stroke-linecap="round" stroke-linejoin="round"/>
</svg>
